<?xml version="1.0" encoding="UTF-8" standalone="no"?>
<!-- Created with Inkscape (http://www.inkscape.org/) -->

<svg
   xmlns:dc="http://purl.org/dc/elements/1.1/"
   xmlns:cc="http://creativecommons.org/ns#"
   xmlns:rdf="http://www.w3.org/1999/02/22-rdf-syntax-ns#"
   xmlns:svg="http://www.w3.org/2000/svg"
   xmlns="http://www.w3.org/2000/svg"
   xmlns:sodipodi="http://sodipodi.sourceforge.net/DTD/sodipodi-0.dtd"
   xmlns:inkscape="http://www.inkscape.org/namespaces/inkscape"
   width="210mm"
   height="297mm"
   viewBox="0 0 210 297"
   version="1.1"
   id="svg8"
   inkscape:version="0.92.3 (2405546, 2018-03-11)"
   sodipodi:docname="abidas.svg"
   inkscape:export-filename="D:\Assignment 4 media\abidas.png"
   inkscape:export-xdpi="96"
   inkscape:export-ydpi="96">
  <defs
     id="defs2" />
  <sodipodi:namedview
     id="base"
     pagecolor="#ffffff"
     bordercolor="#666666"
     borderopacity="1.0"
     inkscape:pageopacity="0.0"
     inkscape:pageshadow="2"
     inkscape:zoom="1"
     inkscape:cx="682.03305"
     inkscape:cy="528.83384"
     inkscape:document-units="mm"
     inkscape:current-layer="layer1"
     showgrid="false"
     inkscape:measure-start="78,808"
     inkscape:measure-end="903,824"
     inkscape:window-width="1920"
     inkscape:window-height="1001"
     inkscape:window-x="-9"
     inkscape:window-y="-9"
     inkscape:window-maximized="1" />
  <metadata
     id="metadata5">
    <rdf:RDF>
      <cc:Work
         rdf:about="">
        <dc:format>image/svg+xml</dc:format>
        <dc:type
           rdf:resource="http://purl.org/dc/dcmitype/StillImage" />
        <dc:title />
      </cc:Work>
    </rdf:RDF>
  </metadata>
  <g
     inkscape:label="Layer 1"
     inkscape:groupmode="layer"
     id="layer1">
    <path
       style="fill:#005191;fill-opacity:1;stroke-width:0.13863386"
       d="m 103.06388,111.58704 a 66.219894,20.381116 88.853944 0 0 -19.044006,62.77859 h 40.678206 a 66.219894,20.381116 88.853944 0 0 -21.6342,-62.77859 z M 84.5454,189.1823 a 66.219894,20.381116 88.853944 0 0 0.66674,7.27552 h 39.06372 a 66.219894,20.381116 88.853944 0 0 0.4099,-7.27552 z m 2.872149,21.8276 a 66.219894,20.381116 88.853944 0 0 1.152921,5.29167 h 33.05075 a 66.219894,20.381116 88.853944 0 0 0.98566,-5.29167 z m 5.932873,20.10834 a 66.219894,20.381116 88.853944 0 0 12.415488,12.88138 66.219894,20.381116 88.853944 0 0 11.62316,-12.88138 z"
       id="path3755"
       inkscape:connector-curvature="0" />
    <path
       style="fill:#005191;fill-opacity:1;stroke-width:0.14799966"
       d="m 200.64666,131.18842 a 22.543123,68.231553 36.591807 0 0 -52.15961,41.74267 22.543123,68.231553 36.591807 0 0 -1.05523,1.43402 h 52.97145 a 22.543123,68.231553 36.591807 0 0 6.33656,-41.23986 22.543123,68.231553 36.591807 0 0 -6.09317,-1.93683 z m -63.20234,57.99336 a 22.543123,68.231553 36.591807 0 0 -4.18321,7.27604 h 53.78897 a 22.543123,68.231553 36.591807 0 0 4.85655,-7.27604 z m -11.17038,21.82813 a 22.543123,68.231553 36.591807 0 0 -1.95802,5.29166 h 46.90928 a 22.543123,68.231553 36.591807 0 0 4.63745,-5.29166 z m -5.0338,20.10833 a 22.543123,68.231553 36.591807 0 0 3.36207,10.94403 22.543123,68.231553 36.591807 0 0 31.19809,-10.94403 z"
       id="path3755-3-2-4"
       inkscape:connector-curvature="0" />
    <path
       style="fill:#005191;fill-opacity:1;stroke-width:0.14799966"
       d="m 10.839129,131.18842 a 68.231561,22.543123 53.408192 0 0 -6.0931682,1.93735 68.231561,22.543123 53.408192 0 0 6.3365642,41.23986 h 52.971444 a 68.231561,22.543123 53.408192 0 0 -1.055233,-1.43402 68.231561,22.543123 53.408192 0 0 -52.159607,-41.74319 z m 8.740036,57.99388 a 68.231561,22.543123 53.408192 0 0 4.878255,7.27552 h 53.761575 a 68.231561,22.543123 53.408192 0 0 -4.177524,-7.27552 z m 16.069301,21.82761 a 68.231561,22.543123 53.408192 0 0 4.646229,5.29166 h 46.828149 a 68.231561,22.543123 53.408192 0 0 -1.936316,-5.29166 z m 20.066476,20.10833 a 68.231561,22.543123 53.408192 0 0 31.168639,10.94455 68.231561,22.543123 53.408192 0 0 3.356385,-10.94455 z"
       id="path3755-3-2-4-7"
       inkscape:connector-curvature="0" />
    <rect
       style="fill:#000000;fill-opacity:0;stroke-width:0.13328232"
       id="rect3874-6"
       width="187.85417"
       height="8.7312498"
       x="21.695831"
       y="211.67188" />
    <rect
       style="fill:#000000;fill-opacity:0;stroke-width:0.13328232"
       id="rect3874-6-8"
       width="187.85417"
       height="8.7312498"
       x="19.579165"
       y="189.1823" />
  </g>
  <g
     inkscape:groupmode="layer"
     id="layer2"
     inkscape:label="Layer 2" />
</svg>
